<svg xmlns="http://www.w3.org/2000/svg" width="77.627" height="38.327" viewBox="0 0 77.627 38.327">
  <defs>
    <style>
      .cls-1 {
        fill: #bbc6cc;
      }
    </style>
  </defs>
  <g id="Group_25" data-name="Group 25" transform="translate(-415.662 -208.038)">
    <path id="Path_45" data-name="Path 45" class="cls-1" d="M427.694,212.759a4.622,4.622,0,0,0-1.326-.183h-5.813a4.4,4.4,0,0,0-1.3.182,4.885,4.885,0,0,0-3.59,4.711,5.12,5.12,0,0,0,.166,1.311,5.172,5.172,0,0,0,.938,1.789,4.866,4.866,0,0,0,2.488,1.614,5.074,5.074,0,0,0,1.3.181h5.813a.929.929,0,1,1,0,1.858h-5.813a.941.941,0,0,1-.92-.938v-.3h-3.973v.3a4.93,4.93,0,0,0,3.592,4.729,5.139,5.139,0,0,0,1.3.181h5.813a5.361,5.361,0,0,0,1.324-.182,4.936,4.936,0,0,0,3.586-4.728,5.127,5.127,0,0,0-.182-1.311,5.307,5.307,0,0,0-.942-1.79,4.919,4.919,0,0,0-2.472-1.614,5.338,5.338,0,0,0-1.314-.178h-5.813a.921.921,0,0,1-.92-.921.932.932,0,0,1,.92-.92h5.813a.941.941,0,0,1,.938.92v.3h3.972v-.3A4.892,4.892,0,0,0,427.694,212.759Z" transform="translate(0 0.969)"/>
    <path id="Path_46" data-name="Path 46" class="cls-1" d="M433.982,221.088v-3.827h3.383v-3.973h-3.383v-4.046H430.01v11.846a7.8,7.8,0,0,0,3.5,6.506,7.6,7.6,0,0,0,4.3,1.311h.3v-3.972h-.3A3.841,3.841,0,0,1,433.982,221.088Z" transform="translate(3.064 0.257)"/>
    <path id="Path_47" data-name="Path 47" class="cls-1" d="M442.6,213.577v-1h-3.972v15.617H442.6v-7.816a3.832,3.832,0,0,1,3.829-3.827h.3v-3.973h-.3A7.75,7.75,0,0,0,442.6,213.577Z" transform="translate(4.904 0.969)"/>
    <path id="Path_48" data-name="Path 48" class="cls-1" d="M458.507,213.581a7.946,7.946,0,0,0-8.144.288,7.806,7.806,0,0,0,8.144,13.309v1.016h3.972V212.576h-3.972Zm0,6.8a3.836,3.836,0,1,1-3.827-3.827A3.841,3.841,0,0,1,458.507,220.377Z" transform="translate(6.662 0.969)"/>
    <circle id="Ellipse_1" data-name="Ellipse 1" class="cls-1" cx="1.986" cy="1.986" r="1.986" transform="translate(489.317 208.038)"/>
    <rect id="Rectangle_75" data-name="Rectangle 75" class="cls-1" width="3.972" height="15.617" transform="translate(489.317 213.545)"/>
    <path id="Path_49" data-name="Path 49" class="cls-1" d="M426.265,238.011a3.85,3.85,0,0,1-1.69-2.629c-.017-.183-.035-.383-.035-.575a4.1,4.1,0,0,1,.166-1.14,3.942,3.942,0,0,1,1.559-2.064,3.812,3.812,0,0,1,2.114-.635,3.864,3.864,0,0,1,3.212,1.723,3.934,3.934,0,0,1,.627,2.115,4.267,4.267,0,0,1-.044.575h-5.832a2.114,2.114,0,0,0,3.813.582l1.436.967a3.888,3.888,0,0,1-3.212,1.723A3.744,3.744,0,0,1,426.265,238.011Zm3.874-4.343h.026c0-.008-.009-.008-.009-.018a2.139,2.139,0,0,0-1.777-.957,2.115,2.115,0,0,0-1.784.976Z" transform="translate(1.896 4.896)"/>
    <path id="Path_50" data-name="Path 50" class="cls-1" d="M436.8,230.969h1.942l-4,7.686-4-7.686h1.942l2.062,3.952Z" transform="translate(3.221 4.896)"/>
    <path id="Path_51" data-name="Path 51" class="cls-1" d="M439.062,238.011a3.851,3.851,0,0,1-1.688-2.629c-.018-.183-.035-.383-.035-.575a4.1,4.1,0,0,1,.165-1.14,3.94,3.94,0,0,1,1.558-2.064,3.82,3.82,0,0,1,2.116-.635,3.866,3.866,0,0,1,3.212,1.723,3.946,3.946,0,0,1,.626,2.115,4.077,4.077,0,0,1-.044.575h-5.832a2.114,2.114,0,0,0,3.813.582l1.437.967a3.89,3.89,0,0,1-3.212,1.723A3.752,3.752,0,0,1,439.062,238.011Zm3.874-4.343h.027c0-.008-.008-.008-.008-.018a2.135,2.135,0,0,0-1.775-.957,2.112,2.112,0,0,0-1.785.976Z" transform="translate(4.629 4.896)"/>
    <path id="Path_52" data-name="Path 52" class="cls-1" d="M444.819,228.644h1.724v10.508h-1.724Z" transform="translate(6.226 4.4)"/>
    <path id="Path_53" data-name="Path 53" class="cls-1" d="M454.974,234.807a3.82,3.82,0,0,1-1.723,3.2,3.744,3.744,0,0,1-2.108.644,3.845,3.845,0,1,1,3.831-3.848Zm-3.831,2.125a2.12,2.12,0,1,0-2.124-2.125A2.119,2.119,0,0,0,451.143,236.932Z" transform="translate(6.755 4.896)"/>
    <path id="Path_54" data-name="Path 54" class="cls-1" d="M456.405,231.6a3.842,3.842,0,1,1,2.124,7.052,3.8,3.8,0,0,1-2.124-.644v3.457h-1.724v-10.5h1.724Zm2.124,1.089a2.12,2.12,0,1,0,2.107,2.115A2.119,2.119,0,0,0,458.529,232.692Z" transform="translate(8.332 4.896)"/>
    <path id="Path_55" data-name="Path 55" class="cls-1" d="M463.791,238.011a3.852,3.852,0,0,1-1.689-2.629c-.017-.183-.035-.383-.035-.575a4.1,4.1,0,0,1,.166-1.14,3.933,3.933,0,0,1,1.558-2.064,3.813,3.813,0,0,1,2.115-.635,3.864,3.864,0,0,1,3.212,1.723,3.961,3.961,0,0,1,.627,2.115,4.267,4.267,0,0,1-.044.575h-5.833a2.114,2.114,0,0,0,3.813.582l1.437.967a3.888,3.888,0,0,1-3.212,1.723A3.745,3.745,0,0,1,463.791,238.011Zm3.874-4.343h.027c0-.008-.01-.008-.01-.018a2.135,2.135,0,0,0-1.775-.957,2.112,2.112,0,0,0-1.784.976Z" transform="translate(9.909 4.896)"/>
    <path id="Path_56" data-name="Path 56" class="cls-1" d="M473.293,232.692a2.117,2.117,0,0,0-2.115,2.115v3.848h-1.724v-7.686h1.724v.635a3.816,3.816,0,0,1,2.115-.635Z" transform="translate(11.486 4.896)"/>
    <path id="Path_57" data-name="Path 57" class="cls-1" d="M475.647,236.932h2.977a.631.631,0,1,0,0-1.262h-2.977a2.485,2.485,0,0,1-.627-.087,2.352,2.352,0,0,1-1.193-.775,2.467,2.467,0,0,1-.451-.862,2.422,2.422,0,0,1-.079-.627,2.354,2.354,0,0,1,1.723-2.262,2.113,2.113,0,0,1,.627-.087h2.977a2.21,2.21,0,0,1,.636.087,2.363,2.363,0,0,1,1.723,2.262h-1.723a.638.638,0,0,0-.636-.626h-2.977a.627.627,0,1,0,0,1.254h2.977a2.55,2.55,0,0,1,.636.087,2.381,2.381,0,0,1,1.184.774,2.584,2.584,0,0,1,.453.863,2.468,2.468,0,0,1,.086.626,2.373,2.373,0,0,1-1.723,2.272,2.608,2.608,0,0,1-.636.087h-2.977a2.485,2.485,0,0,1-.627-.087A2.365,2.365,0,0,1,473.3,236.3h1.723A.638.638,0,0,0,475.647,236.932Z" transform="translate(12.307 4.896)"/>
    <path id="Path_58" data-name="Path 58" class="cls-1" d="M469.347,212.576a7.834,7.834,0,0,0-3.844,1v-1h-3.973v14.992H465.5v-.392a7.709,7.709,0,0,0,3.844,1.017,7.809,7.809,0,0,0,0-15.617Zm0,11.645a3.836,3.836,0,1,1,3.809-3.844A3.849,3.849,0,0,1,469.347,224.221Z" transform="translate(9.794 0.969)"/>
    <path id="Path_59" data-name="Path 59" class="cls-1" d="M461.529,224.842v9.74a4.964,4.964,0,0,1,.552-1.074,4.785,4.785,0,0,1,1.32-1.353,4.682,4.682,0,0,1,2.1-.75v-6.563Z" transform="translate(9.794 3.588)"/>
    <path id="Path_60" data-name="Path 60" class="cls-1" d="M461.529,235.363v5.167H465.5v-1.94a4.567,4.567,0,0,1-2.095-.756A4.738,4.738,0,0,1,461.529,235.363Z" transform="translate(9.794 5.835)"/>
    <path id="Path_61" data-name="Path 61" class="cls-1" d="M423.077,238.557a4.234,4.234,0,0,1-2.368.718,4.284,4.284,0,1,1,2.368-7.86v-3.852H425v11.712h-1.92Zm-2.368-1.2a2.363,2.363,0,1,0-2.358-2.369A2.366,2.366,0,0,0,420.709,237.355Z" transform="translate(0.164 4.169)"/>
  </g>
</svg>
