<svg xmlns="http://www.w3.org/2000/svg" width="25.543" height="24.479" viewBox="0 0 25.543 24.479">
  <defs>
    <style>
      .cls-1 {
        fill: #7768d8;
      }
    </style>
  </defs>
  <path id="github" class="cls-1" d="M12.772.5A12.661,12.661,0,0,0,0,13.05,12.571,12.571,0,0,0,8.733,24.958c.639.118.873-.27.873-.6,0-.3-.011-1.088-.016-2.134-3.553.757-4.3-1.684-4.3-1.684A3.346,3.346,0,0,0,3.867,18.7c-1.157-.778.089-.762.089-.762a2.672,2.672,0,0,1,1.956,1.293,2.75,2.75,0,0,0,3.72,1.044,2.657,2.657,0,0,1,.809-1.678C7.6,18.283,4.623,17.2,4.623,12.4A4.8,4.8,0,0,1,5.938,9.028a4.391,4.391,0,0,1,.112-3.322s1.07-.336,3.512,1.287a12.245,12.245,0,0,1,6.386,0c2.427-1.623,3.5-1.287,3.5-1.287a4.512,4.512,0,0,1,.128,3.322A4.814,4.814,0,0,1,20.88,12.4c0,4.821-2.985,5.882-5.827,6.191a2.978,2.978,0,0,1,.862,2.322c0,1.679-.016,3.029-.016,3.437,0,.329.224.722.878.6A12.533,12.533,0,0,0,25.543,13.05,12.663,12.663,0,0,0,12.772.5Z" transform="translate(0 -0.5)"/>
</svg>
