<svg xmlns="http://www.w3.org/2000/svg" xmlns:xlink="http://www.w3.org/1999/xlink" width="650.403" height="512.951" viewBox="0 0 650.403 512.951">
  <defs>
    <style>
      .cls-1 {
        fill: none;
        clip-rule: evenodd;
      }

      .cls-2 {
        fill: #7768d8;
      }

      .cls-10, .cls-11, .cls-12, .cls-13, .cls-14, .cls-15, .cls-16, .cls-17, .cls-18, .cls-19, .cls-2, .cls-20, .cls-21, .cls-22, .cls-23, .cls-24, .cls-25, .cls-26, .cls-27, .cls-3, .cls-4, .cls-6, .cls-7, .cls-8, .cls-9 {
        fill-rule: evenodd;
      }

      .cls-3 {
        fill: #eaeac7;
      }

      .cls-4 {
        fill: #ffffe8;
      }

      .cls-5 {
        clip-path: url(#clip-path);
      }

      .cls-6 {
        fill: #415b3f;
      }

      .cls-7 {
        fill: #5e875a;
      }

      .cls-8 {
        fill: #8ac185;
      }

      .cls-9 {
        fill: #73a16f;
      }

      .cls-11 {
        fill: url(#linear-gradient);
      }

      .cls-12 {
        fill: #525151;
      }

      .cls-13 {
        fill: url(#linear-gradient-2);
      }

      .cls-14 {
        fill: rgba(255,255,255,0.75);
      }

      .cls-15 {
        fill: #ffc78e;
      }

      .cls-16 {
        fill: #df9056;
      }

      .cls-17 {
        fill: url(#linear-gradient-3);
      }

      .cls-18 {
        fill: #33363b;
      }

      .cls-19 {
        fill: #252525;
      }

      .cls-20 {
        fill: #3a3b3f;
      }

      .cls-21 {
        fill: #ffabc8;
      }

      .cls-22 {
        fill: #de8da9;
      }

      .cls-23 {
        opacity: 0.45;
        fill: url(#linear-gradient-4);
      }

      .cls-24 {
        fill: #6d6c6b;
      }

      .cls-25 {
        fill: #4f4d93;
      }

      .cls-26 {
        fill: #373578;
      }

      .cls-27 {
        fill: #c97d97;
      }
    </style>
    <clipPath id="clip-path">
      <path id="Path_38" data-name="Path 38" class="cls-1" d="M571.121,338.389a162.689,162.689,0,0,1-10.955-30.058c-1.873-7.311-3.242-14.9-2.314-22.388S562.286,271,568.5,266.724c10.352-7.127,25.17-3.415,34.708,4.769s15.227,19.832,21.478,30.735c2.983,5.2,9.184,11.011,13.962,7.389,1.9-1.436,2.628-3.915,3.13-6.24a73.549,73.549,0,0,0-2.682-40.252c-1.2-3.314-2.656-6.7-2.338-10.211.469-5.215,4.689-9.236,8.87-12.383a98.574,98.574,0,0,1,42.62-18.348c6.854-1.159,13.966-1.579,20.706.125,12.852,3.251,22.793,13.934,28.427,25.936s7.6,25.341,9.508,38.461c.586,4.4,38.2-8.293,40.862-9.307a391.752,391.752,0,0,0,38.059-17.386c18.383-9.372,36.943-10.105,43.775-31.709,2.546-8.05,4.216-16.59,8.95-23.58a31.042,31.042,0,0,1,52.2,1.231c3.413,5.593,5.011,12.182,8.715,17.587s10.862,9.5,16.752,6.625c4.547-2.219,6.452-7.521,8.987-11.9,8.336-14.412,26.137-20.835,42.781-21.3,13.3-.374,27.7,2.944,36.27,13.127,8.457,10.049,9.363,24.627,6.541,37.455-3.039,13.8-8.738,35.055,8.913,42.8,7.4,3.247,16-.471,24.017.575,8.276,1.079,15.078,7.151,19.968,13.914,14.69,20.321,15.776,49.548,2.634,70.9-3.742,6.08-8.531,11.589-11.173,18.221a62.859,62.859,0,0,0-2.652,9.363c-6.383,27.956-8.7,56.214-16.745,84.067-27.731,96.021-101.623,157.4-158.7,184.967s-122.485,37.9-184.232,28.021S566.689,662.5,516.077,548.2c-17.753-40.092-24.523-85.626-5.738-126.6,7.808-17.035,19.28-32.139,32.567-45.27,10.813-10.685,20.918-20.649,31.38-31.7Q572.637,341.543,571.121,338.389Z" transform="translate(-499.113 -191.085)"/>
    </clipPath>
    <linearGradient id="linear-gradient" x1="-51.27" y1="15" x2="-51.25" y2="15" gradientUnits="objectBoundingBox">
      <stop offset="0" stop-color="#f3f3f3"/>
      <stop offset="1" stop-color="#a9a9a9"/>
    </linearGradient>
    <linearGradient id="linear-gradient-2" x1="-48.747" y1="14.332" x2="-48.729" y2="14.332" gradientUnits="objectBoundingBox">
      <stop offset="0" stop-color="#a6a6a6"/>
      <stop offset="0.58" stop-color="#959595"/>
      <stop offset="0.8" stop-color="#707070"/>
      <stop offset="1" stop-color="#4d4d4d"/>
    </linearGradient>
    <linearGradient id="linear-gradient-3" x1="-27.306" y1="5.262" x2="-27.297" y2="5.262" gradientUnits="objectBoundingBox">
      <stop offset="0" stop-color="#d18b46"/>
      <stop offset="0.54" stop-color="#f2b67a"/>
      <stop offset="1" stop-color="#ffc78e"/>
    </linearGradient>
    <linearGradient id="linear-gradient-4" x1="-69.731" y1="24.147" x2="-69.706" y2="24.147" gradientUnits="objectBoundingBox">
      <stop offset="0" stop-color="#d69069"/>
      <stop offset="1" stop-color="#ba4e12"/>
    </linearGradient>
  </defs>
  <g id="Group_20" data-name="Group 20" transform="translate(-483.38 -191.085)">
    <path id="Path_1" data-name="Path 1" class="cls-2" d="M608.892,308.193s13.1-12.56,83.338-28.192,83.3-15.61,133.742-41.323,123.968-45.242,184.281-10.551c86.253,49.618,93.391,141.9,65.651,237.924s-101.623,157.4-158.7,184.967-122.484,37.9-184.232,28.021S566.844,641.165,516.232,526.871,535.4,347.83,608.892,308.193Z" transform="translate(18.141 21.332)"/>
    <g id="Group_1" data-name="Group 1" transform="translate(483.38 294.375)">
      <path id="Path_2" data-name="Path 2" class="cls-3" d="M549.311,427.979,598.55,467.7s18.75-2.6,45.021-22.081c28.568-21.2,29.007-35.055,27.56-53.234L627,358s-9.9,25.6-21.742,41.533S549.311,427.979,549.311,427.979Z" transform="translate(-406.707 -100.268)"/>
      <path id="Path_3" data-name="Path 3" class="cls-4" d="M497.822,394.51s44.186,35.861,59.58,60.484c0,0,10.793-23.135,62.5-40.111,38.762-12.72,63.127-3.244,63.127-3.244S637.4,370.291,625.556,351.13c0,0-30.383-4.406-59.251,5.68C538.729,366.446,518.348,376.324,497.822,394.51Z" transform="translate(-466.585 -109.369)"/>
      <path id="Path_4" data-name="Path 4" class="cls-3" d="M483.38,241.5l64.836-2.663S584.1,303.5,594.849,362.979L531.3,354.6S520.872,303.5,483.38,241.5Z" transform="translate(-483.38 -238.84)"/>
    </g>
    <g id="Group_19" data-name="Group 19" transform="translate(517.409 191.085)">
      <g id="Group_18" data-name="Group 18" class="cls-5">
        <g id="Group_4" data-name="Group 4" transform="translate(373.162 15.743)">
          <path id="Path_5" data-name="Path 5" class="cls-6" d="M721.924,446.122S689.543,388.8,680.08,344.151s-12.409-86.433-1.283-120.086,26.468-32.543,42.536-3.6,19.877,42.311,27.618,76.812,4.6,59.048,3.206,84.248-13.542,57.272-17.671,65.725S721.924,446.122,721.924,446.122Z" transform="translate(-671.639 -197.876)"/>
          <g id="Group_2" data-name="Group 2" transform="translate(39.382)">
            <path id="Path_6" data-name="Path 6" class="cls-6" d="M706.4,470.64s-23.269-42.333-14.637-78.343,18.627-29.682,19.687-47.58-16.107-34.577-6.744-55.044,39.484-15.98,39.952-37.1c.932-41.833,18.288-57.776,40.888-53.556,26.5,4.953,25.832,23.522,24.629,40.758-1.317,18.72,1.654,33.508,15.807,42.484s21.718,20.857,18.906,37.055c-3.986,23-20.522,17.751-22.092,43.925s11.172,30.445,8.79,53.855c-2.124,20.931-8.537,43.114-49.12,77.887C746.567,525.745,716.769,503.9,706.4,470.64Z" transform="translate(-689.847 -198.364)"/>
            <path id="Path_7" data-name="Path 7" class="cls-7" d="M729.815,504.144c-10.739-6.766-18.908-19.058-23.409-33.5,0,0-23.269-42.333-14.639-78.341s18.627-29.684,19.685-47.582-16.1-34.577-6.74-55.044,39.48-15.98,39.954-37.1c.93-41.833,18.287-57.776,40.884-53.556l.268.052c-1.224,23.308-3.692,58.842-8.522,99.1C770.147,357.776,744.3,454.734,729.815,504.144Z" transform="translate(-689.847 -198.364)"/>
          </g>
          <g id="Group_3" data-name="Group 3" transform="translate(88.863 100.278)">
            <path id="Path_8" data-name="Path 8" class="cls-8" d="M743.249,568.672s-23.779-41.827-28.884-84.278,2.033-65.431,16.35-85.978,32.3-28.8,46.866-43.52,18.24-12.606,22.427-36.106-5.355-47.152,14.288-64.795,28.9-8.654,36.138,14.777-5.89,46.083-18.1,64.568-12.385,28.921-3.621,48.2,17.31,44.455-9.627,90.8S754.916,555.258,743.249,568.672Z" transform="translate(-712.724 -244.726)"/>
            <path id="Path_9" data-name="Path 9" class="cls-9" d="M826.792,244.792c7.438,1.216,12.432,10.025,16.715,23.9,7.24,23.431-5.885,46.083-18.093,64.568s-12.389,28.921-3.623,48.2,17.312,44.457-9.625,90.8-64.178,82.911-75.847,96.326a282.412,282.412,0,0,1-17.634-39.331c9.426-9.8,33.458-38.855,65.243-111.246C814.069,349.374,823.887,274.984,826.792,244.792Z" transform="translate(-705.793 -244.649)"/>
          </g>
        </g>
        <g id="Group_17" data-name="Group 17" transform="translate(69.098 40.781)">
          <g id="Group_16" data-name="Group 16">
            <g id="Group_9" data-name="Group 9" transform="translate(0 38.297)">
              <g id="Group_6" data-name="Group 6">
                <path id="Path_10" data-name="Path 10" class="cls-10" d="M550.309,268.955s16.462,36.06,21.681,45.649,5.425,16.164,12.041,13.047-.467-9.751-3.283-17.526-22.28-45.24-22.28-45.24Z" transform="translate(-508.674 -184.341)"/>
                <g id="Group_5" data-name="Group 5">
                  <path id="Path_11" data-name="Path 11" class="cls-11" d="M537.132,230.713s-9.874,4.092-4.44,29.184,25.715,56.517,39.752,49.494c12.841-6.428-.642-36.642-4.892-46.73C561.259,247.743,550.3,226.8,537.132,230.713Z" transform="translate(-531.059 -224.637)"/>
                  <path id="Path_12" data-name="Path 12" class="cls-12" d="M576.815,304.451a8.911,8.911,0,0,1-4.373,4.94c-14.035,7.023-34.317-24.4-39.75-49.494s4.44-29.184,4.44-29.184a11.808,11.808,0,0,1,9.175,1.107c-4.592,6.348-6.469,19.96.577,37.228,8.552,20.948,13.5,25.371,20.7,31.581A17.145,17.145,0,0,0,576.815,304.451Z" transform="translate(-531.059 -224.637)"/>
                  <path id="Path_13" data-name="Path 13" class="cls-13" d="M533.446,234.293a114.211,114.211,0,0,1,12.562-6.647s12.348,2.379,24.212,27.458,12.675,50.915,12.675,50.915l-14.587,6.705s9.484-6.714,2.693-29.085-13.086-31.866-18.588-38.569C545.976,237.226,534.523,232.772,533.446,234.293Z" transform="translate(-528.284 -227.646)"/>
                </g>
                <path id="Path_14" data-name="Path 14" class="cls-14" d="M539.25,235.493s-2.794,4.639-.532,15.833c1.726,8.541,3.943,13.053,7.823,18.746,3.154,4.624.18-3.482-1.25-9.755s-1.41-16.559-.616-19.116S541.88,231.933,539.25,235.493Z" transform="translate(-523.181 -219.706)"/>
              </g>
              <g id="Group_7" data-name="Group 7" transform="translate(1.76 127.598)">
                <path id="Path_15" data-name="Path 15" class="cls-15" d="M638.408,388.712l-72.674,55.871s-27.391-13.414-33.1-54.406,21.837-88.574,40.721-103.537l13.895,2.879s-4.354,59.206-4.6,59.044,16.244-20.868,19.5-25.6Z" transform="translate(-531.873 -286.639)"/>
                <path id="Path_16" data-name="Path 16" class="cls-16" d="M565.63,318.734v-.052c4.321-5.557,9.29-11.942,11.425-14.911L613.231,367.7l.6,1.092-22.077,16.975c-.089-.093-.173-.188-.257-.283l-.05.162s-.193-.322-.571-.859c-.809-.924-1.648-1.942-2.513-3.071-5-5.327-15.915-13.1-31.67-3.054l-3.662,3.112.058-.558-.078.061.11-.372,5.533-53.511a1.335,1.335,0,0,1,.16-.335c.13-.2.264-.4.4-.586.443-.614.917-1.207,1.4-1.8,1.533-1.9,3.123-3.746,4.713-5.593Z" transform="translate(-507.294 -266.716)"/>
              </g>
              <g id="Group_8" data-name="Group 8" transform="translate(32.882 85.336)">
                <path id="Path_17" data-name="Path 17" class="cls-15" d="M559.528,268.232s12.409-1.166,15.921,4.233-6.11,10.854-6.11,10.854Z" transform="translate(-530.835 -265.907)"/>
                <path id="Path_18" data-name="Path 18" class="cls-15" d="M546.262,284.617s6.435,24.026,12.884,28.665,13.317,2.678,20.234-2.961,8.522-7.278,8.522-7.278-.221-3.4-1.983-14.312-7.01-19.107-10.1-21.439S546.262,284.617,546.262,284.617Z" transform="translate(-546.262 -267.1)"/>
              </g>
            </g>
            <g id="Group_10" data-name="Group 10" transform="translate(370.969 39.44)">
              <path id="Path_19" data-name="Path 19" class="cls-17" d="M702.572,234.651s42.7-10.994,71.32-4.335c0,0,13.235,10.72,16.6,75.181s-11.838,109.338-11.838,109.338,16.953-.545,16.274,17.226c0,0,4.635-8.027,9.459-5.948,0,0-4.573,26.779-9.716,31.739s-24.1-3.491-28.194-8.509S735.71,311.385,735.055,311.2c-3.538-1.023-19.2,3.275-19.2,3.275Z" transform="translate(-702.572 -228.175)"/>
              <path id="Path_20" data-name="Path 20" class="cls-16" d="M727.79,293.175s7.4-31.3,22.481-49.864l-42.082,6.474,1.763,46.085S727.927,293.58,727.79,293.175Z" transform="translate(-696.039 -210.572)"/>
            </g>
            <g id="Group_11" data-name="Group 11" transform="translate(94.277 328.744)">
              <path id="Path_21" data-name="Path 21" class="cls-18" d="M574.647,489.471s94.712-83.844,124.137-104.3l45.013-2.351,77.113-20.887s2.929,82.927-43.576,116.591c-34.382,24.878-65.416,31.432-65.416,31.432S616.415,517.395,574.647,489.471Z" transform="translate(-574.647 -361.93)"/>
              <path id="Path_22" data-name="Path 22" class="cls-19" d="M683.438,376.968s10.985,38.031,10.8,50.013-89.314,74.156-89.314,74.156,70.237,4.782,70.449,2.34,55.611-24.417,73.873-40.384L760.1,451.918l-48.93-75.378S691.724,373.6,683.438,376.968Z" transform="translate(-539.437 -346.319)"/>
            </g>
            <g id="Group_12" data-name="Group 12" transform="translate(236.215 278.391)">
              <path id="Path_23" data-name="Path 23" class="cls-20" d="M813.042,338.775s8.323-3.262,12.112,23.5,3.084,91.472,3.084,91.472l-2.36,11.8-115.7,63.646S649.9,428.606,640.27,412.555C640.27,412.555,758.193,384.521,813.042,338.775Z" transform="translate(-640.27 -338.65)"/>
              <path id="Path_24" data-name="Path 24" class="cls-19" d="M781.184,339.389a10.054,10.054,0,0,1,5.457.74,18.185,18.185,0,0,1,2.405,1.469c2.154,3.212,4.417,9.119,5.944,19.9,3.783,26.758,3.084,91.472,3.084,91.472l-2.36,11.8-50.176,27.6c-4.263-28.494-14.221-80.348-24.48-84.092-13.536-4.938-51.181,2.241-54.6,2.909a.439.439,0,0,1-.251.048s.084-.017.251-.048c2.591-1.029,22.166-16.464,44.987-32.762C737.03,367.635,762.5,354.5,781.184,339.389Z" transform="translate(-610.105 -337.873)"/>
            </g>
            <g id="Group_13" data-name="Group 13" transform="translate(65.171 39.179)">
              <path id="Path_25" data-name="Path 25" class="cls-21" d="M561.192,386.22s30.906-47.256,75.958-75.382c0,0,44.533-33.246,103.074-53.712,0,0,68.21-26.169,129.568-29.072,0,0,17.723,9.878,16.516,91.09L829.267,342.83s69.711,93.4,84.992,122.681c0,0-37.088,49.479-101.926,69.421s-105.46,10.218-105.46,10.218-38.883-101.309-46.981-114.869c0,0-46.922,33.947-52.514,37.717S560.891,426.948,561.192,386.22Z" transform="translate(-561.19 -228.054)"/>
              <path id="Path_26" data-name="Path 26" class="cls-22" d="M758.553,247.93a364.519,364.519,0,0,1,2.027,48.1l-56.636,23.515C689.9,302.719,669.3,263.691,669.3,263.691,692.709,257.646,736.919,251,758.553,247.93Z" transform="translate(-435.462 -204.94)"/>
              <path id="Path_27" data-name="Path 27" class="cls-22" d="M629.358,266.656c10.806,2.111,38.063,19.836,49.585,34.533,0,0,16.78,36.943,30.175,73.522,6.61,18.054,21.6,49.791,30.951,69.592,16.806,35.593,24.653,55.682,26.814,54.958-41.831,6.943-66.672,1-66.672,1S661.329,398.949,653.23,385.39c0,0-46.922,33.947-52.514,37.717-3.551,2.394-21.365-14.831-33.8-38.158,8.944-4.981,56.894-36.5,57.337-46.209.474-10.248-10.46-36.908-19.916-53.338A214.187,214.187,0,0,1,629.358,266.656Z" transform="translate(-554.528 -183.163)"/>
              <path id="Path_28" data-name="Path 28" class="cls-22" d="M640.1,304.015l48.865-21.984s16.473,33.582,18.121,36.129-7.425,27.74-15.086,35.6c0,0-26.349-4.1-32.74-5.79S640.1,304.015,640.1,304.015Z" transform="translate(-469.419 -165.283)"/>
            </g>
            <g id="Group_14" data-name="Group 14" transform="translate(85.004)">
              <path id="Path_29" data-name="Path 29" class="cls-15" d="M591.791,265.454,656.168,329.1s18.262-46.907,20.429-61.46c0,0-64.113-28.116-64.633-28.159S591.791,265.454,591.791,265.454Z" transform="translate(-545.437 -175.59)"/>
              <path id="Path_30" data-name="Path 30" class="cls-23" d="M614.335,239.933c2.617,1.118,7.2,3.1,12.729,5.511,2.226,13.1,2.784,32.911-10.67,43.8l-24.6-24.322q6.742-8.916,13.555-17.777l.493-.638Z" transform="translate(-545.437 -175.06)"/>
              <path id="Path_31" data-name="Path 31" class="cls-15" d="M575.765,231.817s-11,38.53,2.546,68.628c0,0,4.276,13.367,16.512,9.634S630.478,281.3,630.478,281.3s10.992-11.143,14.569-21.9,4.72-28.135-15.4-37.75S575.765,231.817,575.765,231.817Z" transform="translate(-568.973 -199.384)"/>
              <path id="Path_32" data-name="Path 32" class="cls-24" d="M600,210.345s-29.714,4.458-29.561,26.967c0,0-3.642,10.791,38.742,14.323,0,0-9.227,24.856,5.1,34.051,0,0-1.707-15.5,11.117-14.165s7.38,17.526.95,25.4a82.385,82.385,0,0,0,23.007-25.942c9.342-16.743-.156-37.639-7.817-46.269S622.575,208.022,600,210.345Z" transform="translate(-570.36 -209.94)"/>
            </g>
            <g id="Group_15" data-name="Group 15" transform="translate(133.365 140.296)">
              <path id="Path_33" data-name="Path 33" class="cls-25" d="M636.886,397.063,592.719,457s7.65,32.948,9.714,39.313c0,0,25.406-6.1,42.653-17.182,0,0,23-49.194,29.963-81.285,0,0-2.089-64.641-14.875-115.645l-12.947,2.241S640.156,371.32,636.886,397.063Z" transform="translate(-592.719 -266.202)"/>
              <path id="Path_34" data-name="Path 34" class="cls-26" d="M616.693,316.152c1.54-18.071,2.654-31.711,2.654-31.711l12.947-2.241c5.533,22.086,9.067,46.726,11.29,67.568C635.115,331.332,623.175,320.833,616.693,316.152Z" transform="translate(-564.839 -266.202)"/>
              <path id="Path_35" data-name="Path 35" class="cls-25" d="M620.552,279.247l6.065-4.443s14.844,3.206,14.792,3.3a13.2,13.2,0,0,1,.59,11.89c-2.963,6.458-22.019,7.289-22.019,7.289s-8.271-5.582-5.728-12.75Z" transform="translate(-568.241 -274.804)"/>
            </g>
            <path id="Path_36" data-name="Path 36" class="cls-27" d="M604.138,252.419s-9.406,11.5-10.5,23.84c0,0,1.116,23.617,26.226,57.22,0,0,15.357-24.824,25.968-29.889Z" transform="translate(-458.289 -160.54)"/>
            <path id="Path_37" data-name="Path 37" class="cls-27" d="M613.011,250.563s13.363-12.911,28.611-10.7,32.649,13.748,32.649,13.748l-17.587,69.24s-19.449-5.7-29.433-7.029c0,0,8.362-55.527,8.234-55.626S613.011,250.563,613.011,250.563Z" transform="translate(-435.756 -175.438)"/>
          </g>
        </g>
      </g>
    </g>
    <path id="Path_39" data-name="Path 39" class="cls-2" d="M760.392,401.509s20.909-25.352,48.22-31.611,32.413,10.326,8.429,46.118-55.232,62.539-73.892,46.613S746.753,415.314,760.392,401.509Z" transform="translate(293.786 206.439)"/>
  </g>
</svg>
