<svg xmlns="http://www.w3.org/2000/svg" width="20.539" height="20.543" viewBox="0 0 20.539 20.543">
  <defs>
    <style>
      .cls-1 {
        fill: #7768d8;
      }
    </style>
  </defs>
  <g id="instagram" transform="translate(0)">
    <path id="Path_65" data-name="Path 65" class="cls-1" d="M20.935,6.04a7.506,7.506,0,0,0-.477-2.492A5.262,5.262,0,0,0,17.452.542,7.526,7.526,0,0,0,14.96.064C13.86.012,13.511,0,10.722,0S7.584.012,6.488.06A7.509,7.509,0,0,0,4,.538,5.012,5.012,0,0,0,2.174,1.726,5.058,5.058,0,0,0,.99,3.544,7.527,7.527,0,0,0,.513,6.036C.461,7.135.449,7.484.449,10.274s.012,3.138.06,4.234A7.506,7.506,0,0,0,.986,17a5.262,5.262,0,0,0,3.006,3.006,7.527,7.527,0,0,0,2.492.477c1.1.048,1.445.06,4.234.06s3.138-.012,4.234-.06a7.5,7.5,0,0,0,2.492-.477A5.254,5.254,0,0,0,20.45,17a7.532,7.532,0,0,0,.477-2.492c.048-1.1.06-1.445.06-4.234s0-3.138-.052-4.234Zm-1.85,8.387a5.631,5.631,0,0,1-.353,1.906,3.408,3.408,0,0,1-1.95,1.95,5.651,5.651,0,0,1-1.906.353c-1.084.048-1.408.06-4.149.06s-3.07-.012-4.15-.06a5.628,5.628,0,0,1-1.906-.353,3.161,3.161,0,0,1-1.18-.767,3.194,3.194,0,0,1-.767-1.18,5.652,5.652,0,0,1-.353-1.906c-.048-1.084-.06-1.409-.06-4.15s.012-3.07.06-4.149a5.628,5.628,0,0,1,.353-1.906,3.122,3.122,0,0,1,.771-1.18,3.189,3.189,0,0,1,1.18-.766,5.654,5.654,0,0,1,1.906-.353c1.084-.048,1.409-.06,4.149-.06s3.07.012,4.15.06a5.631,5.631,0,0,1,1.906.353,3.159,3.159,0,0,1,1.18.766,3.193,3.193,0,0,1,.767,1.18,5.654,5.654,0,0,1,.353,1.906c.048,1.084.06,1.408.06,4.149s-.012,3.062-.06,4.146Zm0,0" transform="translate(-0.448 0)"/>
    <path id="Path_66" data-name="Path 66" class="cls-1" d="M130.226,124.5a5.277,5.277,0,1,0,5.277,5.277A5.279,5.279,0,0,0,130.226,124.5Zm0,8.7a3.423,3.423,0,1,1,3.423-3.423A3.424,3.424,0,0,1,130.226,133.2Zm0,0" transform="translate(-119.953 -119.504)"/>
    <path id="Path_67" data-name="Path 67" class="cls-1" d="M364.914,89.834a1.232,1.232,0,1,1-1.232-1.232A1.232,1.232,0,0,1,364.914,89.834Zm0,0" transform="translate(-347.922 -85.046)"/>
  </g>
</svg>
