<svg id="Group_29" data-name="Group 29" xmlns="http://www.w3.org/2000/svg" width="24.484" height="24.479" viewBox="0 0 24.484 24.479">
  <defs>
    <style>
      .cls-1 {
        fill: #7768d8;
      }
    </style>
  </defs>
  <path id="Path_63" data-name="Path 63" class="cls-1" d="M913.268,148.05A12.24,12.24,0,1,1,925.515,135.8,12.253,12.253,0,0,1,913.268,148.05ZM907.4,136.9q0,2.684,0,5.367a.582.582,0,0,0,.454.605.992.992,0,0,0,.861-.2q1.367-.974,2.733-1.948a.162.162,0,0,1,.221,0q1.488,1.011,2.981,2.015a.832.832,0,0,0,.276.136,1.029,1.029,0,0,0,.845-.223q1.24-.872,2.471-1.757c.245-.175.5-.336.729-.533a.67.67,0,0,0,.245-.532q0-5.381,0-10.762a.582.582,0,0,0-.475-.6,1,1,0,0,0-.837.2c-.9.644-1.809,1.286-2.71,1.933a.168.168,0,0,1-.232,0q-1.449-.985-2.9-1.962a.984.984,0,0,0-1.192.009c-.2.136-.388.275-.582.414q-1.23.875-2.46,1.75a.924.924,0,0,0-.427.817C907.4,133.382,907.4,135.14,907.4,136.9Z" transform="translate(-901.031 -123.571)"/>
  <path id="Path_64" data-name="Path 64" class="cls-1" d="M1294.419,372.607c-.056-.036-.091-.056-.124-.078q-1.665-1.123-3.33-2.245a.205.205,0,0,1-.109-.193q0-4.384,0-8.767v-.118a.228.228,0,0,1,.129.063q1.665,1.122,3.331,2.244a.193.193,0,0,1,.1.182q0,4.4,0,8.794Z" transform="translate(-1280.338 -354.795)"/>
</svg>
