<svg xmlns="http://www.w3.org/2000/svg" width="24.387" height="24.479" viewBox="0 0 24.387 24.479">
  <defs>
    <style>
      .cls-1 {
        fill: #7768d8;
      }
    </style>
  </defs>
  <path id="global" class="cls-1" d="M22.9,6.322l-.117-.2A12.228,12.228,0,0,0,1.6,6.12l-.117.2A12.151,12.151,0,0,0,0,11.22v2.04a12.147,12.147,0,0,0,1.484,4.9l.117.2a12.228,12.228,0,0,0,21.186,0l.117-.2a12.145,12.145,0,0,0,1.484-4.9V11.22A12.147,12.147,0,0,0,22.9,6.322Zm-4.611,4.9a24.29,24.29,0,0,0-.3-3.06h3.546a10.11,10.11,0,0,1,.806,3.06Zm-6.1,11.22c-1.153,0-2.385-1.571-3.19-4.08h6.381c-.806,2.509-2.037,4.08-3.19,4.08Zm-3.708-6.12a21.438,21.438,0,0,1-.348-3.06H16.25a21.439,21.439,0,0,1-.348,3.06Zm-.348-5.1a21.438,21.438,0,0,1,.348-3.06H15.9a21.439,21.439,0,0,1,.348,3.06Zm4.056-9.18c1.153,0,2.385,1.572,3.19,4.08H9c.805-2.508,2.037-4.08,3.19-4.08Zm8.14,4.08h-2.79a13.6,13.6,0,0,0-1.327-3.25,10.251,10.251,0,0,1,4.118,3.25ZM8.171,2.87A13.6,13.6,0,0,0,6.843,6.12H4.053A10.25,10.25,0,0,1,8.171,2.87ZM2.851,8.16H6.4a24.338,24.338,0,0,0-.3,3.06H2.045a10.1,10.1,0,0,1,.806-3.06Zm3.243,5.1a24.245,24.245,0,0,0,.3,3.06H2.851a10.11,10.11,0,0,1-.806-3.06Zm-2.041,5.1h2.79a13.623,13.623,0,0,0,1.327,3.25,10.252,10.252,0,0,1-4.117-3.25Zm12.162,3.25a13.561,13.561,0,0,0,1.327-3.25h2.79a10.244,10.244,0,0,1-4.118,3.25Zm5.32-5.29H17.989a24.383,24.383,0,0,0,.3-3.06h4.049A10.125,10.125,0,0,1,21.536,16.319Zm0,0" transform="translate(0)"/>
</svg>
