<svg xmlns="http://www.w3.org/2000/svg" width="25" height="25" viewBox="0 0 25 25">
  <defs>
    <style>
      .cls-1 {
        fill: #7768d8;
      }

      .cls-2 {
        fill: #fff;
      }
    </style>
  </defs>
  <g id="Group_30" data-name="Group 30" transform="translate(-0.04)">
    <circle id="Ellipse_3" data-name="Ellipse 3" class="cls-1" cx="12.5" cy="12.5" r="12.5" transform="translate(0.04)"/>
    <path id="twitter" class="cls-2" d="M4.811,8.4A8.719,8.719,0,0,0,13.591-.381q0-.2-.009-.4a6.279,6.279,0,0,0,1.539-1.6,6.156,6.156,0,0,1-1.772.486A3.1,3.1,0,0,0,14.706-3.6a6.188,6.188,0,0,1-1.959.749,3.082,3.082,0,0,0-2.252-.975A3.086,3.086,0,0,0,7.408-.739a3.083,3.083,0,0,0,.08.7,8.761,8.761,0,0,1-6.36-3.224A3.078,3.078,0,0,0,.711-1.708,3.083,3.083,0,0,0,2.084.86,3.061,3.061,0,0,1,.686.474c0,.013,0,.026,0,.039A3.086,3.086,0,0,0,3.161,3.538a3.1,3.1,0,0,1-.814.109,3.067,3.067,0,0,1-.58-.056A3.089,3.089,0,0,0,4.65,5.734,6.19,6.19,0,0,1,.818,7.055a6.279,6.279,0,0,1-.736-.043A8.734,8.734,0,0,0,4.812,8.4" transform="translate(4.969 9.774)"/>
  </g>
</svg>
